<?xml version="1.0" encoding="UTF-8" standalone="no"?>
<!DOCTYPE svg PUBLIC "-//W3C//DTD SVG 1.1//EN"
 "http://www.w3.org/Graphics/SVG/1.1/DTD/svg11.dtd">
<!-- Generated by graphviz version 2.43.0 (0)
 -->
<!-- Title: snakemake_dag Pages: 1 -->
<svg width="987pt" height="393pt"
 viewBox="0.00 0.00 987.00 393.00" xmlns="http://www.w3.org/2000/svg" xmlns:xlink="http://www.w3.org/1999/xlink">
<g id="graph0" class="graph" transform="scale(1 1) rotate(0) translate(4 389)">
<title>snakemake_dag</title>
<polygon fill="white" stroke="transparent" points="-4,4 -4,-389 983,-389 983,4 -4,4"/>
<g id="clust1" class="cluster">
<title>cluster_0</title>
<path fill="white" stroke="black" stroke-width="2" d="M20,-116C20,-116 82,-116 82,-116 88,-116 94,-122 94,-128 94,-128 94,-233 94,-233 94,-239 88,-245 82,-245 82,-245 20,-245 20,-245 14,-245 8,-239 8,-233 8,-233 8,-128 8,-128 8,-122 14,-116 20,-116"/>
<text text-anchor="middle" x="51" y="-233" font-family="sans" font-size="10.00">Input</text>
</g>
<g id="clust2" class="cluster">
<title>cluster_1</title>
<path fill="white" stroke="black" stroke-width="2" d="M122,-8C122,-8 370,-8 370,-8 376,-8 382,-14 382,-20 382,-20 382,-233 382,-233 382,-239 376,-245 370,-245 370,-245 122,-245 122,-245 116,-245 110,-239 110,-233 110,-233 110,-20 110,-20 110,-14 116,-8 122,-8"/>
<text text-anchor="middle" x="246" y="-233" font-family="sans" font-size="10.00">Preprocess</text>
</g>
<g id="clust4" class="cluster">
<title>cluster_2</title>
<path fill="white" stroke="black" stroke-width="2" d="M410,-143C410,-143 759,-143 759,-143 765,-143 771,-149 771,-155 771,-155 771,-314 771,-314 771,-320 765,-326 759,-326 759,-326 410,-326 410,-326 404,-326 398,-320 398,-314 398,-314 398,-155 398,-155 398,-149 404,-143 410,-143"/>
<text text-anchor="middle" x="584.5" y="-314" font-family="sans" font-size="10.00">Assemble</text>
</g>
<g id="clust5" class="cluster">
<title>cluster_6_space</title>
</g>
<g id="clust6" class="cluster">
<title>cluster_6</title>
<path fill="white" stroke="black" stroke-width="2" stroke-dasharray="5,2" d="M804,-292C804,-292 949,-292 949,-292 955,-292 961,-298 961,-304 961,-304 961,-355 961,-355 961,-361 955,-367 949,-367 949,-367 804,-367 804,-367 798,-367 792,-361 792,-355 792,-355 792,-304 792,-304 792,-298 798,-292 804,-292"/>
<text text-anchor="middle" x="876.5" y="-355" font-family="sans" font-size="10.00">Quantify</text>
</g>
<g id="clust7" class="cluster">
<title>cluster_7_space</title>
</g>
<g id="clust8" class="cluster">
<title>cluster_7</title>
<path fill="white" stroke="black" stroke-width="2" stroke-dasharray="5,2" d="M801,-143C801,-143 949,-143 949,-143 955,-143 961,-149 961,-155 961,-155 961,-260 961,-260 961,-266 955,-272 949,-272 949,-272 801,-272 801,-272 795,-272 789,-266 789,-260 789,-260 789,-155 789,-155 789,-149 795,-143 801,-143"/>
<text text-anchor="middle" x="875" y="-260" font-family="sans" font-size="10.00">Annotate</text>
</g>
<g id="clust9" class="cluster">
<title>cluster_5_space</title>
</g>
<g id="clust10" class="cluster">
<title>cluster_5</title>
<path fill="white" stroke="black" stroke-width="2" stroke-dasharray="5,2" d="M514,-58C514,-58 564,-58 564,-58 570,-58 576,-64 576,-70 576,-70 576,-121 576,-121 576,-127 570,-133 564,-133 564,-133 514,-133 514,-133 508,-133 502,-127 502,-121 502,-121 502,-70 502,-70 502,-64 508,-58 514,-58"/>
<text text-anchor="middle" x="539" y="-121" font-family="sans" font-size="10.00">Virify</text>
</g>
<!-- reference -->
<g id="node1" class="node">
<title>reference</title>
<path fill="none" stroke="#56d86b" stroke-width="2" d="M72,-216C72,-216 30,-216 30,-216 24,-216 18,-210 18,-204 18,-204 18,-192 18,-192 18,-186 24,-180 30,-180 30,-180 72,-180 72,-180 78,-180 84,-186 84,-192 84,-192 84,-204 84,-204 84,-210 78,-216 72,-216"/>
<text text-anchor="middle" x="51" y="-201" font-family="sans" font-size="10.00">Reference</text>
<text text-anchor="middle" x="51" y="-190" font-family="sans" font-size="10.00">Genome</text>
</g>
<!-- bowtie2 -->
<g id="node3" class="node">
<title>bowtie2</title>
<path fill="none" stroke="#566bd8" stroke-width="2" d="M258,-216C258,-216 226,-216 226,-216 220,-216 214,-210 214,-204 214,-204 214,-192 214,-192 214,-186 220,-180 226,-180 226,-180 258,-180 258,-180 264,-180 270,-186 270,-192 270,-192 270,-204 270,-204 270,-210 264,-216 258,-216"/>
<text text-anchor="middle" x="242" y="-201" font-family="sans" font-size="10.00">bowtie2</text>
<text text-anchor="middle" x="242" y="-190" font-family="sans" font-size="10.00">Host</text>
</g>
<!-- reference&#45;&gt;bowtie2 -->
<g id="edge15" class="edge">
<title>reference&#45;&gt;bowtie2</title>
<path fill="none" stroke="grey" stroke-width="2" d="M84.06,-198C117.18,-198 168.82,-198 203.73,-198"/>
<polygon fill="grey" stroke="grey" stroke-width="2" points="203.99,-201.5 213.99,-198 203.99,-194.5 203.99,-201.5"/>
</g>
<!-- fastq -->
<g id="node2" class="node">
<title>fastq</title>
<path fill="none" stroke="#56d873" stroke-width="2" d="M66,-162C66,-162 36,-162 36,-162 30,-162 24,-156 24,-150 24,-150 24,-138 24,-138 24,-132 30,-126 36,-126 36,-126 66,-126 66,-126 72,-126 78,-132 78,-138 78,-138 78,-150 78,-150 78,-156 72,-162 66,-162"/>
<text text-anchor="middle" x="51" y="-147" font-family="sans" font-size="10.00">FASTQ</text>
<text text-anchor="middle" x="51" y="-136" font-family="sans" font-size="10.00">reads</text>
</g>
<!-- fastp -->
<g id="node5" class="node">
<title>fastp</title>
<path fill="none" stroke="#56d892" stroke-width="2" d="M162,-162C162,-162 132,-162 132,-162 126,-162 120,-156 120,-150 120,-150 120,-138 120,-138 120,-132 126,-126 132,-126 132,-126 162,-126 162,-126 168,-126 174,-132 174,-138 174,-138 174,-150 174,-150 174,-156 168,-162 162,-162"/>
<text text-anchor="middle" x="147" y="-141.5" font-family="sans" font-size="10.00">fastp</text>
</g>
<!-- fastq&#45;&gt;fastp -->
<g id="edge16" class="edge">
<title>fastq&#45;&gt;fastp</title>
<path fill="none" stroke="grey" stroke-width="2" d="M78.18,-144C87.96,-144 99.25,-144 109.77,-144"/>
<polygon fill="grey" stroke="grey" stroke-width="2" points="109.96,-147.5 119.96,-144 109.96,-140.5 109.96,-147.5"/>
</g>
<!-- extract -->
<g id="node4" class="node">
<title>extract</title>
<path fill="none" stroke="#56d8b9" stroke-width="2" d="M360,-216C360,-216 322,-216 322,-216 316,-216 310,-210 310,-204 310,-204 310,-192 310,-192 310,-186 316,-180 322,-180 322,-180 360,-180 360,-180 366,-180 372,-186 372,-192 372,-192 372,-204 372,-204 372,-210 366,-216 360,-216"/>
<text text-anchor="middle" x="341" y="-201" font-family="sans" font-size="10.00">Extract</text>
<text text-anchor="middle" x="341" y="-190" font-family="sans" font-size="10.00">Non&#45;Host</text>
</g>
<!-- bowtie2&#45;&gt;extract -->
<g id="edge5" class="edge">
<title>bowtie2&#45;&gt;extract</title>
<path fill="none" stroke="grey" stroke-width="2" d="M270.02,-198C279.17,-198 289.61,-198 299.57,-198"/>
<polygon fill="grey" stroke="grey" stroke-width="2" points="299.71,-201.5 309.71,-198 299.71,-194.5 299.71,-201.5"/>
</g>
<!-- megahit -->
<g id="node9" class="node">
<title>megahit</title>
<path fill="none" stroke="#d8ac56" stroke-width="2" d="M458,-216C458,-216 420,-216 420,-216 414,-216 408,-210 408,-204 408,-204 408,-192 408,-192 408,-186 414,-180 420,-180 420,-180 458,-180 458,-180 464,-180 470,-186 470,-192 470,-192 470,-204 470,-204 470,-210 464,-216 458,-216"/>
<text text-anchor="middle" x="439" y="-195.5" font-family="sans" font-size="10.00">MEGAHIT</text>
</g>
<!-- extract&#45;&gt;megahit -->
<g id="edge17" class="edge">
<title>extract&#45;&gt;megahit</title>
<path fill="none" stroke="grey" stroke-width="2" d="M372.11,-198C380.24,-198 389.17,-198 397.76,-198"/>
<polygon fill="grey" stroke="grey" stroke-width="2" points="398,-201.5 408,-198 398,-194.5 398,-201.5"/>
</g>
<!-- fastp&#45;&gt;bowtie2 -->
<g id="edge1" class="edge">
<title>fastp&#45;&gt;bowtie2</title>
<path fill="none" stroke="grey" stroke-width="2" d="M174.4,-159.33C183.95,-164.88 194.91,-171.24 205.14,-177.18"/>
<polygon fill="grey" stroke="grey" stroke-width="2" points="203.48,-180.26 213.89,-182.26 207,-174.21 203.48,-180.26"/>
</g>
<!-- nonpareil -->
<g id="node6" class="node">
<title>nonpareil</title>
<path fill="none" stroke="#a7d856" stroke-width="2" stroke-dasharray="5,2" d="M262,-54C262,-54 222,-54 222,-54 216,-54 210,-48 210,-42 210,-42 210,-30 210,-30 210,-24 216,-18 222,-18 222,-18 262,-18 262,-18 268,-18 274,-24 274,-30 274,-30 274,-42 274,-42 274,-48 268,-54 262,-54"/>
<text text-anchor="middle" x="242" y="-33.5" font-family="sans" font-size="10.00">Nonpareil</text>
</g>
<!-- fastp&#45;&gt;nonpareil -->
<g id="edge2" class="edge">
<title>fastp&#45;&gt;nonpareil</title>
<path fill="none" stroke="grey" stroke-width="2" d="M160.34,-125.8C172.21,-108.81 191.09,-83.14 210,-63 210.62,-62.34 211.25,-61.68 211.9,-61.02"/>
<polygon fill="grey" stroke="grey" stroke-width="2" points="214.36,-63.51 219.14,-54.05 209.5,-58.47 214.36,-63.51"/>
</g>
<!-- singlem -->
<g id="node7" class="node">
<title>singlem</title>
<path fill="none" stroke="#d8ac56" stroke-width="2" stroke-dasharray="5,2" d="M258,-108C258,-108 226,-108 226,-108 220,-108 214,-102 214,-96 214,-96 214,-84 214,-84 214,-78 220,-72 226,-72 226,-72 258,-72 258,-72 264,-72 270,-78 270,-84 270,-84 270,-96 270,-96 270,-102 264,-108 258,-108"/>
<text text-anchor="middle" x="242" y="-87.5" font-family="sans" font-size="10.00">SingleM</text>
</g>
<!-- fastp&#45;&gt;singlem -->
<g id="edge3" class="edge">
<title>fastp&#45;&gt;singlem</title>
<path fill="none" stroke="grey" stroke-width="2" d="M174.4,-128.67C183.95,-123.12 194.91,-116.76 205.14,-110.82"/>
<polygon fill="grey" stroke="grey" stroke-width="2" points="207,-113.79 213.89,-105.74 203.48,-107.74 207,-113.79"/>
</g>
<!-- kraken2 -->
<g id="node8" class="node">
<title>kraken2</title>
<path fill="none" stroke="#61d856" stroke-width="2" d="M258,-162C258,-162 226,-162 226,-162 220,-162 214,-156 214,-150 214,-150 214,-138 214,-138 214,-132 220,-126 226,-126 226,-126 258,-126 258,-126 264,-126 270,-132 270,-138 270,-138 270,-150 270,-150 270,-156 264,-162 258,-162"/>
<text text-anchor="middle" x="242" y="-141.5" font-family="sans" font-size="10.00">kraken2</text>
</g>
<!-- fastp&#45;&gt;kraken2 -->
<g id="edge4" class="edge">
<title>fastp&#45;&gt;kraken2</title>
<path fill="none" stroke="grey" stroke-width="2" d="M174.4,-144C183.47,-144 193.81,-144 203.58,-144"/>
<polygon fill="grey" stroke="grey" stroke-width="2" points="203.89,-147.5 213.89,-144 203.89,-140.5 203.89,-147.5"/>
</g>
<!-- concoct -->
<g id="node10" class="node">
<title>concoct</title>
<path fill="none" stroke="#56d86b" stroke-width="2" d="M559.5,-189C559.5,-189 518.5,-189 518.5,-189 512.5,-189 506.5,-183 506.5,-177 506.5,-177 506.5,-165 506.5,-165 506.5,-159 512.5,-153 518.5,-153 518.5,-153 559.5,-153 559.5,-153 565.5,-153 571.5,-159 571.5,-165 571.5,-165 571.5,-177 571.5,-177 571.5,-183 565.5,-189 559.5,-189"/>
<text text-anchor="middle" x="539" y="-168.5" font-family="sans" font-size="10.00">CONCOCT</text>
</g>
<!-- megahit&#45;&gt;concoct -->
<g id="edge6" class="edge">
<title>megahit&#45;&gt;concoct</title>
<path fill="none" stroke="grey" stroke-width="2" d="M470.2,-189.68C478.54,-187.38 487.73,-184.85 496.58,-182.41"/>
<polygon fill="grey" stroke="grey" stroke-width="2" points="497.66,-185.74 506.37,-179.71 495.8,-179 497.66,-185.74"/>
</g>
<!-- maxbin2 -->
<g id="node11" class="node">
<title>maxbin2</title>
<path fill="none" stroke="#56c9d8" stroke-width="2" d="M556.5,-243C556.5,-243 521.5,-243 521.5,-243 515.5,-243 509.5,-237 509.5,-231 509.5,-231 509.5,-219 509.5,-219 509.5,-213 515.5,-207 521.5,-207 521.5,-207 556.5,-207 556.5,-207 562.5,-207 568.5,-213 568.5,-219 568.5,-219 568.5,-231 568.5,-231 568.5,-237 562.5,-243 556.5,-243"/>
<text text-anchor="middle" x="539" y="-222.5" font-family="sans" font-size="10.00">MaxBin2</text>
</g>
<!-- megahit&#45;&gt;maxbin2 -->
<g id="edge7" class="edge">
<title>megahit&#45;&gt;maxbin2</title>
<path fill="none" stroke="grey" stroke-width="2" d="M470.2,-206.32C479.47,-208.87 489.79,-211.72 499.53,-214.4"/>
<polygon fill="grey" stroke="grey" stroke-width="2" points="498.83,-217.84 509.4,-217.12 500.69,-211.09 498.83,-217.84"/>
</g>
<!-- metabat2 -->
<g id="node12" class="node">
<title>metabat2</title>
<path fill="none" stroke="#d86656" stroke-width="2" d="M560,-297C560,-297 518,-297 518,-297 512,-297 506,-291 506,-285 506,-285 506,-273 506,-273 506,-267 512,-261 518,-261 518,-261 560,-261 560,-261 566,-261 572,-267 572,-273 572,-273 572,-285 572,-285 572,-291 566,-297 560,-297"/>
<text text-anchor="middle" x="539" y="-276.5" font-family="sans" font-size="10.00">MetaBAT2</text>
</g>
<!-- megahit&#45;&gt;metabat2 -->
<g id="edge8" class="edge">
<title>megahit&#45;&gt;metabat2</title>
<path fill="none" stroke="grey" stroke-width="2" d="M455.28,-216.25C465.1,-227.34 478.51,-241.36 492,-252 493.58,-253.25 495.23,-254.48 496.91,-255.68"/>
<polygon fill="grey" stroke="grey" stroke-width="2" points="495.33,-258.83 505.58,-261.5 499.23,-253.02 495.33,-258.83"/>
</g>
<!-- virify -->
<g id="node20" class="node">
<title>virify</title>
<path fill="none" stroke="#abdbaf" stroke-width="2" stroke-dasharray="5,2" d="M554,-104C554,-104 524,-104 524,-104 518,-104 512,-98 512,-92 512,-92 512,-80 512,-80 512,-74 518,-68 524,-68 524,-68 554,-68 554,-68 560,-68 566,-74 566,-80 566,-80 566,-92 566,-92 566,-98 560,-104 554,-104"/>
<text text-anchor="middle" x="539" y="-83.5" font-family="sans" font-size="10.00">virify</text>
</g>
<!-- megahit&#45;&gt;virify -->
<g id="edge18" class="edge">
<title>megahit&#45;&gt;virify</title>
<path fill="none" stroke="grey" stroke-width="2" d="M456.18,-179.51C472.31,-161.08 497.21,-132.62 515.31,-111.93"/>
<polygon fill="grey" stroke="grey" stroke-width="2" points="518.17,-113.98 522.12,-104.15 512.9,-109.37 518.17,-113.98"/>
</g>
<!-- magscot -->
<g id="node13" class="node">
<title>magscot</title>
<path fill="none" stroke="#a7d856" stroke-width="2" d="M659,-243C659,-243 620,-243 620,-243 614,-243 608,-237 608,-231 608,-231 608,-219 608,-219 608,-213 614,-207 620,-207 620,-207 659,-207 659,-207 665,-207 671,-213 671,-219 671,-219 671,-231 671,-231 671,-237 665,-243 659,-243"/>
<text text-anchor="middle" x="639.5" y="-222.5" font-family="sans" font-size="10.00">MAGScoT</text>
</g>
<!-- concoct&#45;&gt;magscot -->
<g id="edge10" class="edge">
<title>concoct&#45;&gt;magscot</title>
<path fill="none" stroke="grey" stroke-width="2" d="M571.71,-188.38C580.4,-193.15 589.92,-198.37 598.99,-203.34"/>
<polygon fill="grey" stroke="grey" stroke-width="2" points="597.41,-206.46 607.86,-208.2 600.77,-200.33 597.41,-206.46"/>
</g>
<!-- maxbin2&#45;&gt;magscot -->
<g id="edge11" class="edge">
<title>maxbin2&#45;&gt;magscot</title>
<path fill="none" stroke="grey" stroke-width="2" d="M568.76,-225C577.76,-225 587.88,-225 597.56,-225"/>
<polygon fill="grey" stroke="grey" stroke-width="2" points="597.82,-228.5 607.82,-225 597.82,-221.5 597.82,-228.5"/>
</g>
<!-- metabat2&#45;&gt;magscot -->
<g id="edge9" class="edge">
<title>metabat2&#45;&gt;magscot</title>
<path fill="none" stroke="grey" stroke-width="2" d="M572.25,-261.32C580.75,-256.66 590.01,-251.58 598.85,-246.74"/>
<polygon fill="grey" stroke="grey" stroke-width="2" points="600.76,-249.68 607.85,-241.8 597.4,-243.54 600.76,-249.68"/>
</g>
<!-- drep -->
<g id="node14" class="node">
<title>drep</title>
<path fill="none" stroke="#61d856" stroke-width="2" stroke-dasharray="5,2" d="M749,-243C749,-243 719,-243 719,-243 713,-243 707,-237 707,-231 707,-231 707,-219 707,-219 707,-213 713,-207 719,-207 719,-207 749,-207 749,-207 755,-207 761,-213 761,-219 761,-219 761,-231 761,-231 761,-237 755,-243 749,-243"/>
<text text-anchor="middle" x="734" y="-222.5" font-family="sans" font-size="10.00">dRep</text>
</g>
<!-- magscot&#45;&gt;drep -->
<g id="edge12" class="edge">
<title>magscot&#45;&gt;drep</title>
<path fill="none" stroke="grey" stroke-width="2" d="M671.04,-225C679.27,-225 688.26,-225 696.77,-225"/>
<polygon fill="grey" stroke="grey" stroke-width="2" points="696.83,-228.5 706.83,-225 696.83,-221.5 696.83,-228.5"/>
</g>
<!-- bowtie2_drep -->
<g id="node15" class="node">
<title>bowtie2_drep</title>
<path fill="none" stroke="#3c540b" stroke-width="2" stroke-dasharray="5,2" d="M846,-338C846,-338 814,-338 814,-338 808,-338 802,-332 802,-326 802,-326 802,-314 802,-314 802,-308 808,-302 814,-302 814,-302 846,-302 846,-302 852,-302 858,-308 858,-314 858,-314 858,-326 858,-326 858,-332 852,-338 846,-338"/>
<text text-anchor="middle" x="830" y="-323" font-family="sans" font-size="10.00">bowtie2</text>
<text text-anchor="middle" x="830" y="-312" font-family="sans" font-size="10.00">MAGs</text>
</g>
<!-- drep&#45;&gt;bowtie2_drep -->
<g id="edge20" class="edge">
<title>drep&#45;&gt;bowtie2_drep</title>
<path fill="none" stroke="grey" stroke-width="2" d="M749.89,-243.48C758.15,-253.41 768.8,-265.7 779,-276 785.32,-282.38 792.4,-288.93 799.2,-294.97"/>
<polygon fill="grey" stroke="grey" stroke-width="2" points="797.17,-297.84 807,-301.78 801.77,-292.57 797.17,-297.84"/>
</g>
<!-- gtdbtk -->
<g id="node17" class="node">
<title>gtdbtk</title>
<path fill="none" stroke="#56d85b" stroke-width="2" stroke-dasharray="5,2" d="M848,-243C848,-243 812,-243 812,-243 806,-243 800,-237 800,-231 800,-231 800,-219 800,-219 800,-213 806,-207 812,-207 812,-207 848,-207 848,-207 854,-207 860,-213 860,-219 860,-219 860,-231 860,-231 860,-237 854,-243 848,-243"/>
<text text-anchor="middle" x="830" y="-222.5" font-family="sans" font-size="10.00">GTDB&#45;TK</text>
</g>
<!-- drep&#45;&gt;gtdbtk -->
<g id="edge19" class="edge">
<title>drep&#45;&gt;gtdbtk</title>
<path fill="none" stroke="grey" stroke-width="2" d="M761.18,-225C770.04,-225 780.13,-225 789.78,-225"/>
<polygon fill="grey" stroke="grey" stroke-width="2" points="789.98,-228.5 799.98,-225 789.98,-221.5 789.98,-228.5"/>
</g>
<!-- checkm -->
<g id="node19" class="node">
<title>checkm</title>
<path fill="none" stroke="#66b76e" stroke-width="2" d="M849,-189C849,-189 811,-189 811,-189 805,-189 799,-183 799,-177 799,-177 799,-165 799,-165 799,-159 805,-153 811,-153 811,-153 849,-153 849,-153 855,-153 861,-159 861,-165 861,-165 861,-177 861,-177 861,-183 855,-189 849,-189"/>
<text text-anchor="middle" x="830" y="-168.5" font-family="sans" font-size="10.00">CheckM2</text>
</g>
<!-- drep&#45;&gt;checkm -->
<g id="edge21" class="edge">
<title>drep&#45;&gt;checkm</title>
<path fill="none" stroke="grey" stroke-width="2" d="M761.38,-208.48C767.15,-204.96 773.25,-201.31 779,-198 782.61,-195.92 786.38,-193.8 790.17,-191.69"/>
<polygon fill="grey" stroke="grey" stroke-width="2" points="791.89,-194.74 798.97,-186.87 788.52,-188.61 791.89,-194.74"/>
</g>
<!-- coverm -->
<g id="node16" class="node">
<title>coverm</title>
<path fill="none" stroke="#56d8a9" stroke-width="2" stroke-dasharray="5,2" d="M939,-338C939,-338 909,-338 909,-338 903,-338 897,-332 897,-326 897,-326 897,-314 897,-314 897,-308 903,-302 909,-302 909,-302 939,-302 939,-302 945,-302 951,-308 951,-314 951,-314 951,-326 951,-326 951,-332 945,-338 939,-338"/>
<text text-anchor="middle" x="924" y="-317.5" font-family="sans" font-size="10.00">CoverM</text>
</g>
<!-- bowtie2_drep&#45;&gt;coverm -->
<g id="edge13" class="edge">
<title>bowtie2_drep&#45;&gt;coverm</title>
<path fill="none" stroke="grey" stroke-width="2" d="M858.11,-320C867.06,-320 877.17,-320 886.69,-320"/>
<polygon fill="grey" stroke="grey" stroke-width="2" points="886.72,-323.5 896.72,-320 886.72,-316.5 886.72,-323.5"/>
</g>
<!-- dram -->
<g id="node18" class="node">
<title>dram</title>
<path fill="none" stroke="#d85e56" stroke-width="2" stroke-dasharray="5,2" d="M939,-243C939,-243 909,-243 909,-243 903,-243 897,-237 897,-231 897,-231 897,-219 897,-219 897,-213 903,-207 909,-207 909,-207 939,-207 939,-207 945,-207 951,-213 951,-219 951,-219 951,-231 951,-231 951,-237 945,-243 939,-243"/>
<text text-anchor="middle" x="924" y="-222.5" font-family="sans" font-size="10.00">DRAM</text>
</g>
<!-- gtdbtk&#45;&gt;dram -->
<g id="edge14" class="edge">
<title>gtdbtk&#45;&gt;dram</title>
<path fill="none" stroke="grey" stroke-width="2" d="M860.11,-225C868.58,-225 877.95,-225 886.8,-225"/>
<polygon fill="grey" stroke="grey" stroke-width="2" points="886.88,-228.5 896.88,-225 886.88,-221.5 886.88,-228.5"/>
</g>
</g>
</svg>
